<svg width="353" height="257" viewBox="0 0 353 257" fill="none" xmlns="http://www.w3.org/2000/svg">
<path fill-rule="evenodd" clip-rule="evenodd" d="M80.3447 14.0273C52.3778 31.0886 20.3 69.3576 20.3 85.6734C20.3 92.7095 16.0755 101.968 10.9067 106.256C-2.5975 117.467 -3.3714 188.794 9.8914 199.806C15.614 204.556 20.3 217.293 20.3 228.107C20.3 239.495 25.0286 249.598 31.5322 252.09C46.1724 257.706 306.828 257.706 321.468 252.09C327.971 249.598 332.7 239.495 332.7 228.107C332.7 217.293 337.386 204.556 343.109 199.806C356.371 188.794 355.598 117.467 342.093 106.256C336.925 101.968 332.7 92.5746 332.7 85.3752C332.7 68.8251 294.254 24.6134 268.097 11.0879C236.864 -5.06459 108.354 -3.0553 80.3447 14.0273ZM273.628 26.3032C297.399 43.9325 326.97 85.4391 323.399 96.1672C320.232 105.695 41.9479 110.488 32.6327 101.173C24.5955 93.1355 41.3586 59.6448 64.0005 38.501C91.1864 13.1185 112.486 8.0633 184.878 9.8028C241.848 11.166 257.028 13.9918 273.628 26.3032ZM338.451 126.825C336.257 138.221 322.81 139.25 176.5 139.25C30.1903 139.25 16.7429 138.221 14.549 126.825C12.3267 115.28 23.8074 114.4 176.5 114.4C329.193 114.4 340.673 115.28 338.451 126.825ZM231.419 168.438L255.722 186.983L275.076 168.438C287.686 156.361 302.333 149.9 317.116 149.9C337.585 149.9 339.8 151.98 339.8 171.2V192.5H176.5H13.2V171.2V149.9H110.158C203.736 149.9 207.953 150.546 231.419 168.438ZM266.769 162.069C255.275 173.564 253.926 173.564 242.431 162.069C230.936 150.575 231.61 149.9 254.6 149.9C277.59 149.9 278.264 150.575 266.769 162.069ZM325.6 219.48C325.6 246.801 313.118 249.3 176.5 249.3C39.8818 249.3 27.4 246.801 27.4 219.48C27.4 207.58 37.6524 206.7 176.5 206.7C315.348 206.7 325.6 207.58 325.6 219.48Z" fill="#FFAF1E"/>
</svg>
